<?xml version="1.0" encoding="iso-8859-1"?>
<!-- Generator: Adobe Illustrator 19.0.0, SVG Export Plug-In . SVG Version: 6.00 Build 0)  -->
<svg version="1.1" id="Capa_1" xmlns="http://www.w3.org/2000/svg" xmlns:xlink="http://www.w3.org/1999/xlink" x="0px" y="0px"
	 viewBox="0 0 512.004 512.004" style="enable-background:new 0 0 512.004 512.004;" xml:space="preserve">
<path style="fill:#4398D1;" d="M85.335,375.469L85.335,375.469c-18.85,0-34.133-15.283-34.133-34.133V8.535l34.133,25.6l34.133-25.6
	l34.133,25.6l34.133-25.6l34.133,25.6l34.133-25.6l34.133,25.6l34.133-25.6v366.933H85.335z"/>
<g>
	<rect x="93.869" y="230.402" style="fill:#EBEBEB;" width="25.6" height="17.067"/>
	<rect x="93.869" y="281.602" style="fill:#EBEBEB;" width="25.6" height="17.067"/>
	<rect x="93.869" y="128.002" style="fill:#EBEBEB;" width="59.733" height="17.067"/>
	<rect x="93.869" y="179.202" style="fill:#EBEBEB;" width="25.6" height="17.067"/>
	<rect x="93.869" y="76.802" style="fill:#EBEBEB;" width="102.4" height="17.067"/>
	<rect x="247.469" y="76.802" style="fill:#EBEBEB;" width="34.133" height="17.067"/>
</g>
<path style="fill:#126099;" d="M153.602,136.535c-18.85,0-34.133,15.283-34.133,34.133v170.667c0,18.85-15.283,34.133-34.133,34.133
	h375.467v-204.8c0-18.85-15.283-34.133-34.133-34.133H153.602"/>
<path style="fill:#87CED9;" d="M426.669,136.535H153.602c18.85,0,34.133,15.283,34.133,34.133v332.8l34.133-25.6l34.133,25.6
	l34.133-25.6l34.133,25.6l34.133-25.6l34.133,25.6l34.133-25.6l34.133,25.6v-332.8C460.802,151.819,445.519,136.535,426.669,136.535
	z"/>
<path style="fill:#6CBBC7;" d="M187.735,453.975v49.493l34.133-25.6l34.133,25.6l34.133-25.6l34.133,25.6l34.133-25.6l34.133,25.6
	l34.133-25.6l34.133,25.6V176.642C388.866,308.311,278.615,397.997,187.735,453.975z"/>
<g>
	<rect x="230.402" y="290.135" style="fill:#EBEBEB;" width="102.4" height="17.067"/>
	<rect x="384.002" y="290.135" style="fill:#EBEBEB;" width="34.133" height="17.067"/>
	<rect x="230.402" y="341.335" style="fill:#EBEBEB;" width="68.267" height="17.067"/>
	<rect x="384.002" y="341.335" style="fill:#EBEBEB;" width="34.133" height="17.067"/>
	<rect x="230.402" y="392.535" style="fill:#EBEBEB;" width="102.4" height="17.067"/>
	<rect x="384.002" y="392.535" style="fill:#EBEBEB;" width="34.133" height="17.067"/>
	<rect x="230.402" y="187.735" style="fill:#EBEBEB;" width="102.4" height="17.067"/>
	<rect x="384.002" y="187.735" style="fill:#EBEBEB;" width="34.133" height="17.067"/>
	<rect x="230.402" y="238.935" style="fill:#EBEBEB;" width="68.267" height="17.067"/>
	<rect x="384.002" y="238.935" style="fill:#EBEBEB;" width="34.133" height="17.067"/>
</g>
<path d="M85.335,384.002h93.867v119.467c0.009,3.217,1.826,6.153,4.693,7.595c2.893,1.468,6.357,1.169,8.96-0.768l29.013-21.76
	l29.013,21.76c3.038,2.278,7.202,2.278,10.24,0l29.013-21.76l29.013,21.76c3.038,2.278,7.202,2.278,10.24,0l29.013-21.76
	l29.013,21.76c3.038,2.278,7.202,2.278,10.24,0l29.013-21.76l29.013,21.76c1.476,1.109,3.277,1.707,5.12,1.707
	c1.34,0.026,2.662-0.299,3.84-0.939c2.867-1.442,4.685-4.378,4.693-7.595v-332.8c0-23.561-19.106-42.667-42.667-42.667h-93.867
	V8.535c-0.009-3.217-1.826-6.153-4.693-7.595c-2.893-1.468-6.357-1.169-8.96,0.768l-29.013,21.76l-29.013-21.76
	c-3.038-2.278-7.202-2.278-10.24,0l-29.013,21.76l-29.013-21.76c-3.038-2.278-7.202-2.278-10.24,0l-29.013,21.76l-29.013-21.76
	c-3.038-2.278-7.202-2.278-10.24,0l-29.013,21.76L56.322,1.709c-2.5-1.766-5.76-2.065-8.533-0.768
	c-3.038,1.323-5.035,4.284-5.12,7.595v332.8C42.669,364.896,61.775,384.002,85.335,384.002z M119.469,366.935
	c5.581-7.364,8.585-16.358,8.533-25.6V170.669c0-14.14,11.46-25.6,25.6-25.6c14.14,0,25.6,11.46,25.6,25.6v196.267H119.469z
	 M452.269,170.669v315.733l-20.48-15.36c-3.038-2.278-7.202-2.278-10.24,0l-29.013,21.76l-29.013-21.76
	c-3.038-2.278-7.202-2.278-10.24,0l-29.013,21.76l-29.013-21.76c-3.038-2.278-7.202-2.278-10.24,0l-29.013,21.76l-29.013-21.76
	c-3.038-2.278-7.202-2.278-10.24,0l-20.48,15.36V170.669c0.051-9.242-2.953-18.236-8.533-25.6h238.933
	C440.809,145.069,452.269,156.529,452.269,170.669z M59.735,25.602l20.48,15.36c3.038,2.278,7.202,2.278,10.24,0l29.013-21.76
	l29.013,21.76c3.038,2.278,7.202,2.278,10.24,0l29.013-21.76l29.013,21.76c3.038,2.278,7.202,2.278,10.24,0l29.013-21.76
	l29.013,21.76c3.038,2.278,7.202,2.278,10.24,0l20.48-15.36v102.4H93.869v17.067h25.6c-5.581,7.364-8.585,16.358-8.533,25.6v8.533
	H93.869v17.067h17.067v34.133H93.869v17.067h17.067v34.133H93.869v17.067h17.067v42.667c0,14.14-11.46,25.6-25.6,25.6
	s-25.6-11.46-25.6-25.6V25.602z"/>
<rect x="230.402" y="290.135" width="102.4" height="17.067"/>
<rect x="384.002" y="290.135" width="34.133" height="17.067"/>
<rect x="230.402" y="341.335" width="68.267" height="17.067"/>
<rect x="384.002" y="341.335" width="34.133" height="17.067"/>
<rect x="230.402" y="392.535" width="102.4" height="17.067"/>
<rect x="384.002" y="392.535" width="34.133" height="17.067"/>
<rect x="230.402" y="187.735" width="102.4" height="17.067"/>
<rect x="384.002" y="187.735" width="34.133" height="17.067"/>
<rect x="230.402" y="238.935" width="68.267" height="17.067"/>
<rect x="384.002" y="238.935" width="34.133" height="17.067"/>
<rect x="93.869" y="76.802" width="102.4" height="17.067"/>
<rect x="247.469" y="76.802" width="34.133" height="17.067"/>
<g>
</g>
<g>
</g>
<g>
</g>
<g>
</g>
<g>
</g>
<g>
</g>
<g>
</g>
<g>
</g>
<g>
</g>
<g>
</g>
<g>
</g>
<g>
</g>
<g>
</g>
<g>
</g>
<g>
</g>
</svg>
